<?xml version="1.0" encoding="UTF-8"?>
<svg xmlns="http://www.w3.org/2000/svg" width="48" height="48" viewBox="0 0 48 48">
  <defs><style id="current-color-scheme" type="text/css">.ColorScheme-Text { color:#232629; }</style></defs>
  <path class="ColorScheme-Text" fill="currentColor" transform="translate(-0.022,-20.571) scale(1.0222,1.8571)" d="M 10.209961,24.302734 14.762695,31 H 11.238281 L 8.1708984,26.517578 5.1298828,31 H 1.5878906 L 6.140625,24.302734 1.7636719,17.87793 H 5.296875 l 2.8740234,4.227539 2.8652346,-4.227539 h 3.550781 z m 6.56543,-6.424804 h 4.30664 l 2.988281,7.022461 3.00586,-7.022461 h 4.297851 V 31 h -3.199218 v -9.597656 l -3.023438,7.075195 H 23.006836 L 19.983398,21.402344 V 31 h -3.208007 z m 23.167968,5.080078 q 0.799805,0 1.212891,-0.351563 0.413086,-0.351562 0.413086,-1.037109 0,-0.676758 -0.413086,-1.02832 -0.413086,-0.360352 -1.212891,-0.360352 h -1.87207 v 2.777344 z m 0.114258,5.739258 q 1.019531,0 1.529297,-0.430664 0.518555,-0.430665 0.518555,-1.300782 0,-0.852539 -0.509766,-1.274414 -0.509766,-0.430664 -1.538086,-0.430664 h -1.986328 v 3.436524 z m 3.146485,-4.719727 q 1.089843,0.316406 1.6875,1.168945 0.597656,0.852539 0.597656,2.091797 0,1.898438 -1.283203,2.830078 Q 42.922852,31 40.303711,31 H 34.6875 V 17.87793 h 5.080078 q 2.733399,0 3.955078,0.826172 1.230469,0.826171 1.230469,2.645507 0,0.958008 -0.448242,1.634766 -0.448242,0.667969 -1.300781,0.993164 z"/>
</svg>
